<?xml version="1.0" encoding="UTF-8"?>
<svg version="1.1" xmlns="http://www.w3.org/2000/svg" width="380" height="100">
<path d="M0 0 C9.9 0 19.8 0 30 0 C30 33 30 66 30 100 C-9.6 100 -49.2 100 -90 100 C-90 76.9 -90 53.8 -90 30 C-86.7 30 -83.4 30 -80 30 C-80 23.4 -80 16.8 -80 10 C-53.6 10 -27.2 10 0 10 C0 6.7 0 3.4 0 0 Z " fill="#098F08" transform="translate(220,0)"/>
<path d="M0 0 C13.2 0 26.4 0 40 0 C40 3.3 40 6.6 40 10 C53.2 10 66.4 10 80 10 C80 13.3 80 16.6 80 20 C89.9 20 99.8 20 110 20 C110 26.6 110 33.2 110 40 C113.3 40 116.6 40 120 40 C120 59.8 120 79.6 120 100 C106.8 100 93.6 100 80 100 C80 83.5 80 67 80 50 C76.7 50 73.4 50 70 50 C70 66.5 70 83 70 100 C63.4 100 56.8 100 50 100 C50 83.5 50 67 50 50 C46.7 50 43.4 50 40 50 C40 66.5 40 83 40 100 C26.8 100 13.6 100 0 100 C0 67 0 34 0 0 Z " fill="#FAC02E" transform="translate(260,0)"/>
<path d="M0 0 C13.2 0 26.4 0 40 0 C40 3.3 40 6.6 40 10 C53.2 10 66.4 10 80 10 C80 23.2 80 36.4 80 50 C66.8 50 53.6 50 40 50 C40 66.5 40 83 40 100 C26.8 100 13.6 100 0 100 C0 86.8 0 73.6 0 60 C-13.2 60 -26.4 60 -40 60 C-40 46.8 -40 33.6 -40 20 C-26.8 20 -13.6 20 0 20 C0 13.4 0 6.8 0 0 Z " fill="#9C28B1" transform="translate(40,0)"/>
<path d="M0 0 C19.8 0 39.6 0 60 0 C60 3.3 60 6.6 60 10 C69.9 10 79.8 10 90 10 C90 26.5 90 43 90 60 C50.4 60 10.8 60 -30 60 C-30 56.7 -30 53.4 -30 50 C-6.9 50 16.2 50 40 50 C40 40.1 40 30.2 40 20 C26.8 20 13.6 20 0 20 C0 13.4 0 6.8 0 0 Z " fill="#056F00" transform="translate(160,40)"/>
<path d="M0 0 C9.9 0 19.8 0 30 0 C30 6.6 30 13.2 30 20 C33.3 20 36.6 20 40 20 C40 39.8 40 59.6 40 80 C26.8 80 13.6 80 0 80 C0 53.6 0 27.2 0 0 Z " fill="#FFEE58" transform="translate(340,20)"/>
<path d="M0 0 C9.9 0 19.8 0 30 0 C30 9.9 30 19.8 30 30 C43.2 30 56.4 30 70 30 C70 39.9 70 49.8 70 60 C46.9 60 23.8 60 0 60 C0 40.2 0 20.4 0 0 Z " fill="#2BAE2A" transform="translate(130,30)"/>
<path d="M0 0 C13.2 0 26.4 0 40 0 C40 19.8 40 39.6 40 60 C26.8 60 13.6 60 0 60 C0 40.2 0 20.4 0 0 Z " fill="#FFEE58" transform="translate(260,40)"/>
<path d="M0 0 C13.2 0 26.4 0 40 0 C40 13.2 40 26.4 40 40 C26.8 40 13.6 40 0 40 C0 26.8 0 13.6 0 0 Z " fill="#7A1FA2" transform="translate(0,20)"/>
<path d="M0 0 C13.2 0 26.4 0 40 0 C40 13.2 40 26.4 40 40 C26.8 40 13.6 40 0 40 C0 26.8 0 13.6 0 0 Z " fill="#7A1FA2" transform="translate(80,10)"/>
<path d="M0 0 C13.2 0 26.4 0 40 0 C40 13.2 40 26.4 40 40 C26.8 40 13.6 40 0 40 C0 26.8 0 13.6 0 0 Z " fill="#FDD734" transform="translate(260,0)"/>
<path d="M0 0 C39.6 0 79.2 0 120 0 C120 3.3 120 6.6 120 10 C80.4 10 40.8 10 0 10 C0 6.7 0 3.4 0 0 Z " fill="#0F5204" transform="translate(130,90)"/>
<path d="M0 0 C6.6 0 13.2 0 20 0 C20 19.8 20 39.6 20 60 C13.4 60 6.8 60 0 60 C0 40.2 0 20.4 0 0 Z " fill="#FFEE58" transform="translate(310,40)"/>
<path d="M0 0 C29.7 0 59.4 0 90 0 C90 6.6 90 13.2 90 20 C80.1 20 70.2 20 60 20 C60 16.7 60 13.4 60 10 C40.2 10 20.4 10 0 10 C0 6.7 0 3.4 0 0 Z " fill="#078D06" transform="translate(160,30)"/>
<path d="M0 0 C19.8 0 39.6 0 60 0 C60 3.3 60 6.6 60 10 C53.4 10 46.8 10 40 10 C40 13.3 40 16.6 40 20 C26.8 20 13.6 20 0 20 C0 13.4 0 6.8 0 0 Z " fill="#0078C1" transform="translate(160,40)"/>
<path d="M0 0 C9.9 0 19.8 0 30 0 C30 9.9 30 19.8 30 30 C20.1 30 10.2 30 0 30 C0 20.1 0 10.2 0 0 Z " fill="#2BAE2A" transform="translate(220,0)"/>
<path d="M0 0 C19.8 0 39.6 0 60 0 C60 3.3 60 6.6 60 10 C40.2 10 20.4 10 0 10 C0 6.7 0 3.4 0 0 Z " fill="#0F5204" transform="translate(160,30)"/>
<path d="M0 0 C9.9 0 19.8 0 30 0 C30 6.6 30 13.2 30 20 C20.1 20 10.2 20 0 20 C0 13.4 0 6.8 0 0 Z " fill="#FDD734" transform="translate(340,20)"/>
<path d="M0 0 C13.2 0 26.4 0 40 0 C40 3.3 40 6.6 40 10 C26.8 10 13.6 10 0 10 C0 6.7 0 3.4 0 0 Z " fill="#F47F16" transform="translate(340,90)"/>
<path d="M0 0 C13.2 0 26.4 0 40 0 C40 3.3 40 6.6 40 10 C26.8 10 13.6 10 0 10 C0 6.7 0 3.4 0 0 Z " fill="#F47F16" transform="translate(260,90)"/>
<path d="M0 0 C13.2 0 26.4 0 40 0 C40 3.3 40 6.6 40 10 C26.8 10 13.6 10 0 10 C0 6.7 0 3.4 0 0 Z " fill="#47168C" transform="translate(40,90)"/>
<path d="M0 0 C13.2 0 26.4 0 40 0 C40 3.3 40 6.6 40 10 C26.8 10 13.6 10 0 10 C0 6.7 0 3.4 0 0 Z " fill="#47168C" transform="translate(0,50)"/>
<path d="M0 0 C13.2 0 26.4 0 40 0 C40 3.3 40 6.6 40 10 C26.8 10 13.6 10 0 10 C0 6.7 0 3.4 0 0 Z " fill="#47168C" transform="translate(80,40)"/>
<path d="M0 0 C6.6 0 13.2 0 20 0 C20 3.3 20 6.6 20 10 C13.4 10 6.8 10 0 10 C0 6.7 0 3.4 0 0 Z " fill="#F47F16" transform="translate(310,90)"/>
<path d="M0 0 C3.3 0 6.6 0 10 0 C10 3.3 10 6.6 10 10 C6.7 10 3.4 10 0 10 C0 6.7 0 3.4 0 0 Z " fill="#F47F16" transform="translate(330,40)"/>
<path d="M0 0 C3.3 0 6.6 0 10 0 C10 3.3 10 6.6 10 10 C6.7 10 3.4 10 0 10 C0 6.7 0 3.4 0 0 Z " fill="#F47F16" transform="translate(300,40)"/>
</svg>
